<?xml version="1.0" standalone="no"?>
<!DOCTYPE svg PUBLIC "-//W3C//DTD SVG 20010904//EN"
 "http://www.w3.org/TR/2001/REC-SVG-20010904/DTD/svg10.dtd">
<svg version="1.0" xmlns="http://www.w3.org/2000/svg"
 width="1138.000000pt" height="1280.000000pt" viewBox="0 0 1138.000000 1280.000000"
 preserveAspectRatio="xMidYMid meet">
<g transform="translate(0.000000,1280.000000) scale(0.100000,-0.100000)"
fill="#000000" stroke="none">
<path d="M5400 12779 c-329 -32 -560 -78 -835 -166 -561 -181 -1033 -470
-1456 -892 -636 -637 -994 -1429 -1059 -2346 -6 -79 -10 -582 -10 -1151 0
-913 -2 -1012 -16 -1018 -9 -3 -96 -6 -194 -6 -120 0 -181 -4 -186 -11 -3 -6
-8 -1498 -10 -3315 -3 -3193 -2 -3304 16 -3326 l18 -23 4021 0 c3745 0 4022 1
4037 17 16 15 17 163 20 2005 2 1093 1 2587 -3 3318 l-8 1330 -195 6 c-107 3
-196 6 -197 7 -2 1 -3 458 -3 1015 0 961 -5 1174 -31 1377 -87 680 -347 1296
-771 1828 -130 162 -397 430 -558 558 -363 288 -734 488 -1165 627 -283 91
-504 134 -852 167 -250 24 -316 23 -563 -1z m551 -999 c608 -61 1172 -326
1605 -755 217 -215 372 -432 509 -710 126 -257 201 -491 248 -780 20 -126 21
-164 24 -1224 3 -886 1 -1096 -9 -1102 -7 -5 -1194 -9 -2638 -9 -1444 0 -2631
4 -2638 9 -10 6 -12 216 -9 1102 3 1060 4 1098 24 1224 47 289 122 523 248
780 137 278 292 495 509 710 427 423 994 692 1586 754 122 12 420 13 541 1z"/>
</g>
</svg>
